<?xml version="1.0" encoding="utf-8"?>
<!-- Generator: Adobe Illustrator 23.0.1, SVG Export Plug-In . SVG Version: 6.00 Build 0)  -->
<svg version="1.1" id="Layer_1" xmlns="http://www.w3.org/2000/svg" xmlns:xlink="http://www.w3.org/1999/xlink" x="0px" y="0px"
	 viewBox="0 0 50 50" style="enable-background:new 0 0 50 50;" xml:space="preserve">
<style type="text/css">
	.st0{fill:#2062AF;}
	.st1{fill:#3C9CD7;}
	.st2{fill:#FFFFFF;}
	.st3{fill:url(#SVGID_1_);}
	.st4{fill:url(#SVGID_2_);}
	.st5{fill:url(#SVGID_3_);}
	.st6{opacity:0.05;enable-background:new    ;}
	.st7{fill:url(#SVGID_4_);}
</style>
<path class="st0" d="M39.51,45.7l-14.16,3.81L11.19,45.7L7.92,10.3h34.86L39.51,45.7z"/>
<path class="st1" d="M25.35,13.16v33.31l0.03,0.01l11.46-3.09l2.65-30.23L25.35,13.16L25.35,13.16z"/>
<path d="M17.31,5.09V2.99h3.07V0.68H15V7.2h5.38v-2.1H17.31z M25.92,2.99h2.15V0.68h-5.38v2.31c0.72,0.72,1.1,1.06,2.14,2.11
	c-0.61,0-2.14,0-2.14,0v2.1h5.38v-2.1L25.92,2.99L25.92,2.99z M33.54,2.99h2.15V0.68h-5.38v2.31c0.72,0.72,1.1,1.06,2.14,2.11
	c-0.61,0-2.14,0-2.14,0v2.1h5.38v-2.1L33.54,2.99L33.54,2.99z"/>
<path class="st2" d="M25.34,22.02L15.2,26.24l0.34,4.18l9.8-4.19l10.42-4.46l0.43-4.28L25.34,22.02L25.34,22.02z"/>
<linearGradient id="SVGID_1_" gradientUnits="userSpaceOnUse" x1="-1060.3934" y1="-1571.0361" x2="-1060.3934" y2="-1572.8459" gradientTransform="matrix(4.6418 0 0 4.6418 4942.4033 7322.856)">
	<stop  offset="0.387" style="stop-color:#D1D3D4;stop-opacity:0"/>
	<stop  offset="1" style="stop-color:#D1D3D4"/>
</linearGradient>
<path class="st3" d="M15.2,26.24l0.34,4.18l9.8-4.19v-4.21L15.2,26.24z"/>
<linearGradient id="SVGID_2_" gradientUnits="userSpaceOnUse" x1="-1058.1321" y1="-1571.9388" x2="-1058.1321" y2="-1573.8201" gradientTransform="matrix(4.6418 0 0 4.6418 4942.4033 7322.856)">
	<stop  offset="0.387" style="stop-color:#D1D3D4;stop-opacity:0"/>
	<stop  offset="1" style="stop-color:#D1D3D4"/>
</linearGradient>
<path class="st4" d="M36.19,17.49l-10.86,4.52v4.21l10.42-4.46L36.19,17.49z"/>
<linearGradient id="SVGID_3_" gradientUnits="userSpaceOnUse" x1="-1061.4819" y1="-1570.2289" x2="-1057.135" y2="-1570.2289" gradientTransform="matrix(4.6418 0 0 4.6418 4942.4033 7322.856)">
	<stop  offset="0" style="stop-color:#E8E7E5"/>
	<stop  offset="1" style="stop-color:#FFFFFF"/>
</linearGradient>
<path class="st5" d="M15.21,26.24l0.34,4.18l15.04,0.05l-0.34,5.57l-4.95,1.39l-4.76-1.2l-0.29-3.46h-4.42l0.58,6.68l8.94,2.64
	l8.89-2.59l1.15-13.26H15.21z"/>
<path class="st6" d="M25.34,26.24H15.2l0.34,4.18l9.8,0.03L25.34,26.24L25.34,26.24z M25.34,37.42l-0.05,0.01l-4.76-1.2l-0.29-3.46
	h-4.42l0.58,6.68l8.94,2.64V37.42z"/>
<linearGradient id="SVGID_4_" gradientUnits="userSpaceOnUse" x1="-1061.6819" y1="-1573.3596" x2="-1056.9625" y2="-1573.3596" gradientTransform="matrix(4.6418 0 0 4.6418 4942.4033 7322.856)">
	<stop  offset="0" style="stop-color:#E8E7E5"/>
	<stop  offset="1" style="stop-color:#FFFFFF"/>
</linearGradient>
<path class="st7" d="M14.29,17.49h21.91l-0.43,4.28H14.81L14.29,17.49L14.29,17.49z"/>
<path class="st6" d="M25.34,17.49H14.29l0.53,4.28h10.52L25.34,17.49L25.34,17.49z"/>
</svg>
