<?xml version="1.0" encoding="utf-8"?>
<!-- Generator: Adobe Illustrator 23.0.1, SVG Export Plug-In . SVG Version: 6.00 Build 0)  -->
<svg version="1.1" id="Layer_1" focusable="false" xmlns="http://www.w3.org/2000/svg" xmlns:xlink="http://www.w3.org/1999/xlink"
	 x="0px" y="0px" viewBox="0 0 512 512" style="enable-background:new 0 0 512 512;" xml:space="preserve">
<style type="text/css">
	.st0{fill:#FFFFFF;}
	.st1{fill:#1662DB;}
</style>
<circle class="st0" cx="256.5" cy="256.5" r="255.5"/>
<path class="st1" d="M197.56,208.28h106.88c5.9,0,10.69-4.78,10.69-10.69v-10.69c0-5.9-4.78-10.69-10.69-10.69H197.56
	c-5.9,0-10.69,4.78-10.69,10.69v10.69C186.88,203.5,191.66,208.28,197.56,208.28z M186.88,261.72c0,5.9,4.78,10.69,10.69,10.69
	h106.88c5.9,0,10.69-4.78,10.69-10.69v-10.69c0-5.9-4.78-10.69-10.69-10.69H197.56c-5.9,0-10.69,4.78-10.69,10.69V261.72z
	 M251,342.63c-10.97,0-21.94-3.38-31.3-10.15L80,231.57v142.37C80,391.65,94.35,406,112.06,406h277.88
	c17.71,0,32.06-14.35,32.06-32.06V231.57L282.3,332.48C272.94,339.24,261.97,342.63,251,342.63L251,342.63z M409.72,172.85
	c-5.91-4.64-11.52-9-19.78-15.24v-29.48c0-17.71-14.35-32.06-32.06-32.06h-51.8c-2.03-1.47-3.92-2.85-6.04-4.38
	C288.81,83.48,266.5,63.77,251,64c-15.5-0.23-37.8,19.48-49.04,27.68c-2.12,1.54-4.01,2.91-6.04,4.38h-51.8
	c-17.71,0-32.06,14.35-32.06,32.06v29.48c-8.26,6.23-13.87,10.6-19.78,15.24C84.53,178.92,80,188.22,80,198.07v7.11l64.13,46.32
	V128.13h213.75v123.39L422,205.19v-7.11C422,188.23,417.47,178.92,409.72,172.85L409.72,172.85z"/>
</svg>
