<?xml version="1.0" encoding="utf-8"?>
<!-- Generator: Adobe Illustrator 23.0.1, SVG Export Plug-In . SVG Version: 6.00 Build 0)  -->
<svg version="1.1" id="Layer_1" xmlns="http://www.w3.org/2000/svg" xmlns:xlink="http://www.w3.org/1999/xlink" x="0px" y="0px"
	 viewBox="0 0 50 50" style="enable-background:new 0 0 50 50;" xml:space="preserve">
<style type="text/css">
	.st0{fill:#F6D2A2;}
	.st1{fill:#69D7E2;}
	.st2{fill:#FFFFFF;}
	.st3{fill:#231F20;}
</style>
<g>
	<path class="st0" d="M7.47,27.08c0.07,1.48,1.55,0.79,2.21,0.33c0.63-0.44,0.82-0.07,0.88-0.93c0.04-0.57,0.1-1.13,0.07-1.71
		c-0.96-0.09-1.99,0.14-2.78,0.72C7.43,25.77,6.68,26.72,7.47,27.08 M36.93,45.24c1.13,0.7,3.21,2.83,1.51,3.86
		c-1.64,1.49-2.55-1.65-3.99-2.08C35.07,46.18,35.84,45.4,36.93,45.24z M16.64,47.64c-1.33,0.2-2.08,1.41-3.2,2.02
		c-1.05,0.62-1.45-0.2-1.54-0.37c-0.16-0.07-0.14,0.07-0.4-0.19c-0.98-1.54,1-2.65,2.04-3.42C14.98,45.4,15.88,46.65,16.64,47.64
		L16.64,47.64z M43.23,26.89c-0.07,1.48-1.55,0.79-2.21,0.33c-0.63-0.44-0.82-0.07-0.88-0.93c-0.04-0.57-0.1-1.13-0.07-1.71
		c0.96-0.09,1.99,0.14,2.78,0.72C43.26,25.58,44.02,26.53,43.23,26.89"/>
	<path class="st1" d="M39.31,8.87c5.12-1.81,1.12-8.82-3.34-5.73c-2.93-2.51-6.96-2.97-11.19-2.97c-4.15,0.33-8.09,1.09-10.85,3.5
		C9.48,0.8,5.38,7.69,10.6,9.43c-1.46,5.68,0.2,11.48-0.03,17.26c-0.22,5.19-1.58,12.15,1.31,16.82c2.45,3.99,7.73,5.41,12.08,5.57
		c5.55,0.2,12.28-1.16,14.98-6.54c2.58-5.12,1.87-11.51,1.54-17.03C40.14,19.92,40.76,14.25,39.31,8.87L39.31,8.87z"/>
	<path d="M43.62,26.01c-0.14-0.3-0.42-0.65-0.67-0.83c-0.66-0.47-1.51-0.73-2.38-0.76c-0.03-0.89-0.06-1.87-0.06-3.1V20.2
		c-0.01-3.53-0.06-5.08-0.26-7.02c-0.16-1.52-0.4-2.93-0.75-4.25c1.16-0.44,1.92-1.18,2.22-2.12c0.29-0.88,0.14-1.87-0.34-2.74
		c-0.5-0.86-1.31-1.51-2.24-1.76c-1-0.27-2.09-0.07-3.14,0.63c-0.93-0.79-2.01-1.39-3.21-1.85C30.65,0.3,28.16,0,24.79,0v0.14
		L24.78,0c-3.6,0.29-6.27,0.85-8.48,1.92c-0.89,0.43-1.68,0.95-2.37,1.55c-1.06-0.66-2.17-0.82-3.19-0.5
		C9.8,3.26,8.98,3.93,8.49,4.81s-0.6,1.88-0.27,2.74c0.33,0.86,1.09,1.54,2.22,1.95c-0.36,1.45-0.55,2.98-0.57,4.68
		c-0.03,1.65,0.04,2.97,0.3,5.95c0.19,2.22,0.26,3.24,0.29,4.48c-0.98-0.04-1.95,0.22-2.68,0.75c-0.26,0.19-0.55,0.52-0.67,0.83
		c-0.19,0.4-0.11,0.76,0.26,0.98c0.06,0.69,0.44,1,1.03,0.95c0.43-0.04,0.95-0.27,1.39-0.59c0.09-0.07,0.2-0.13,0.3-0.17
		c0.04-0.01,0.07-0.03,0.11-0.04c0,0,0.09-0.03,0.11-0.04c0.04-0.01,0.09-0.03,0.11-0.06c-0.03,0.67-0.09,1.38-0.22,2.98
		c-0.14,1.81-0.22,2.8-0.24,3.9c-0.13,4.1,0.36,7.09,1.82,9.46c0.46,0.75,1.02,1.41,1.68,2.01c-0.13,0.09-0.67,0.49-0.85,0.62
		c-0.6,0.46-1.02,0.85-1.26,1.28c-0.32,0.56-0.32,1.12,0.04,1.71l0.01,0.01l0.01,0.01c0.16,0.16,0.24,0.2,0.36,0.2h0.04
		c0.01,0.03,0.03,0.04,0.04,0.07c0.04,0.07,0.09,0.13,0.13,0.19c0.36,0.42,0.86,0.52,1.54,0.11c0.36-0.19,0.62-0.4,1.16-0.86
		l0.03-0.03c0.88-0.75,1.31-1.02,1.95-1.12l0.23-0.04c0.09,0.04,0.17,0.07,0.27,0.11c2.04,0.82,4.41,1.26,6.8,1.35
		c3.1,0.11,6.08-0.27,8.61-1.19c0.67-0.24,1.31-0.53,1.91-0.85c0.37,0.14,0.69,0.44,1.29,1.15c0.03,0.03,0.03,0.03,0.04,0.06
		c0.03,0.03,0.03,0.04,0.04,0.06c0.03,0.04,0.07,0.07,0.1,0.11c0.47,0.56,0.79,0.83,1.15,0.99c0.47,0.2,0.93,0.1,1.41-0.33
		c0.83-0.52,0.89-1.32,0.34-2.24c-0.39-0.65-1.06-1.32-1.69-1.75c0.75-0.73,1.39-1.61,1.89-2.6c1.38-2.75,1.91-5.97,1.88-10.1
		c-0.01-1.46-0.07-2.74-0.23-5.18v-0.07c0.07,0.03,0.14,0.07,0.22,0.13c0.44,0.3,0.96,0.55,1.39,0.59c0.59,0.06,0.98-0.26,1.03-0.95
		C43.73,26.78,43.8,26.42,43.62,26.01L43.62,26.01z M39.05,2.61c0.86,0.23,1.61,0.83,2.07,1.64c0.46,0.8,0.59,1.71,0.33,2.51
		c-0.27,0.85-0.96,1.52-2.04,1.92c-0.21-0.77-0.47-1.52-0.76-2.27c0.42-0.36,0.62-0.8,0.29-1.43c-0.33-0.63-0.9-0.7-1.49-0.52
		c-0.37-0.49-0.79-0.92-1.22-1.32C37.17,2.54,38.15,2.37,39.05,2.61L39.05,2.61z M8.46,7.46c-0.3-0.77-0.2-1.69,0.26-2.5
		c0.46-0.8,1.21-1.43,2.09-1.69C11.73,3,12.72,3.13,13.7,3.7c-0.56,0.51-1.07,1.08-1.49,1.71c-0.75-0.39-1.51-0.46-1.94,0.33
		c-0.44,0.85,0.07,1.38,0.8,1.78c-0.1,0.24-0.2,0.5-0.29,0.76c-0.1,0.32-0.2,0.65-0.29,0.98C9.45,8.85,8.76,8.24,8.46,7.46
		L8.46,7.46z M10.2,27.02c-0.01,0-0.1,0.03-0.1,0.04c-0.04,0.01-0.09,0.03-0.13,0.06c-0.11,0.04-0.23,0.11-0.34,0.2
		c-0.4,0.29-0.89,0.5-1.26,0.53c-0.43,0.04-0.67-0.14-0.72-0.66c0.3-0.1,0.43-0.17,0.55-0.34l-0.23-0.17
		c-0.09,0.11-0.17,0.16-0.43,0.24c-0.01,0-0.01,0-0.03,0.01c-0.23-0.13-0.27-0.33-0.14-0.62c0.11-0.26,0.37-0.56,0.59-0.72
		c0.69-0.5,1.61-0.75,2.53-0.69c0,0.36,0.01,0.72,0,1.06c0,0.04,0,0.07-0.01,0.11c-0.01,0.2-0.01,0.29-0.03,0.39
		C10.39,26.89,10.36,26.95,10.2,27.02L10.2,27.02z M14.53,48.67L14.5,48.7c-0.53,0.46-0.79,0.65-1.12,0.83
		c-0.55,0.33-0.92,0.26-1.18-0.06c-0.04-0.04-0.07-0.1-0.1-0.14c-0.01-0.01-0.03-0.04-0.04-0.06v-0.01
		c0.03-0.26,0.13-0.44,0.39-0.85c0.01-0.01,0.01-0.01,0.01-0.03c0.16-0.23,0.23-0.36,0.3-0.52l-0.26-0.11
		c-0.06,0.13-0.13,0.24-0.27,0.47c-0.01,0.01-0.01,0.01-0.01,0.03c-0.26,0.37-0.37,0.6-0.43,0.86h-0.01h-0.04
		c-0.03-0.01-0.07-0.04-0.13-0.1c-0.56-0.89-0.11-1.65,1.15-2.6c0.16-0.11,0.69-0.49,0.83-0.6c0.03,0,0.06-0.01,0.09-0.03
		c0.77,0.66,1.68,1.23,2.68,1.71c0,0.01,0.01,0.03,0.03,0.04C15.79,47.68,15.34,47.98,14.53,48.67L14.53,48.67z M38.62,47.11
		c0.44,0.75,0.43,1.35-0.13,1.76c-0.04-0.09-0.07-0.19-0.13-0.33c0-0.01,0-0.01-0.01-0.03c-0.2-0.55-0.33-0.77-0.57-1.03l-0.2,0.2
		c0.22,0.2,0.32,0.42,0.52,0.92c0,0.01,0,0.01,0.01,0.03c0.07,0.19,0.11,0.3,0.16,0.4c-0.37,0.32-0.7,0.37-1.05,0.22
		c-0.3-0.13-0.59-0.4-1.05-0.92c-0.03-0.03-0.06-0.07-0.09-0.11c-0.01-0.01-0.03-0.03-0.04-0.06c-0.03-0.03-0.03-0.03-0.04-0.06
		c-0.53-0.62-0.85-0.95-1.19-1.13c0.8-0.46,1.52-0.98,2.17-1.58C37.58,45.83,38.25,46.49,38.62,47.11L38.62,47.11z M38.82,42.46
		c-1.23,2.48-3.42,4.23-6.34,5.29c-2.5,0.9-5.45,1.28-8.51,1.16c-5.27-0.19-9.83-2.02-11.97-5.5c-1.43-2.31-1.91-5.25-1.78-9.3
		c0.04-1.1,0.1-2.09,0.24-3.9c0.16-2.04,0.2-2.63,0.24-3.54c0.03-0.66,0.03-1.33,0.01-2.05c-0.03-1.26-0.1-2.27-0.29-4.52
		c-0.26-2.98-0.33-4.29-0.3-5.93c0.04-2.15,0.33-4.05,0.93-5.84c0.98-2.91,2.77-4.88,5.35-6.16c2.17-1.06,4.79-1.61,8.37-1.89
		c3.34,0,5.78,0.3,7.89,1.08c2.53,0.93,4.41,2.57,5.7,5.08c0.83,2.04,1.32,4.23,1.58,6.76c0.2,1.92,0.24,3.47,0.26,6.99v1.12
		c0.01,1.74,0.04,2.96,0.11,4.18c0.03,0.47,0.04,0.67,0.11,1.81c0.16,2.44,0.22,3.7,0.23,5.17C40.7,36.58,40.19,39.75,38.82,42.46
		L38.82,42.46z M43.22,26.75c-0.01,0-0.03-0.01-0.04-0.01c-0.26-0.09-0.34-0.14-0.43-0.24l-0.23,0.17c0.13,0.17,0.26,0.24,0.55,0.34
		c-0.06,0.52-0.3,0.7-0.72,0.66c-0.37-0.03-0.86-0.26-1.26-0.53c-0.11-0.09-0.23-0.14-0.34-0.2c-0.01,0-0.03-0.01-0.04-0.01
		c-0.06-0.79-0.06-0.99-0.09-1.41l-0.04-0.77c0.8,0.01,1.59,0.26,2.2,0.7c0.22,0.16,0.47,0.46,0.59,0.72
		C43.49,26.4,43.46,26.62,43.22,26.75L43.22,26.75z"/>
	<path class="st2" d="M26.95,14.97c0.01,0.73,0.16,1.54,0.03,2.31c-0.2,0.37-0.57,0.42-0.9,0.56c-0.46-0.07-0.85-0.37-1.03-0.8
		c-0.11-0.88,0.03-1.71,0.07-2.58c0-0.03,0.55,0.01,1.03,0.16C26.57,14.74,26.95,14.96,26.95,14.97L26.95,14.97z M22.89,15.03
		c-0.4,1.52,0.53,4,2.07,1.97c-0.11-0.86,0.01-1.69,0.06-2.54C25.03,14.38,22.91,14.93,22.89,15.03L22.89,15.03z"/>
	<path d="M27.12,15.64c-0.03-0.43-0.04-0.6-0.04-0.82v-0.1l-0.1-0.03l-1.81-0.56v-0.1l-0.19,0.04h-0.01v0.01l-2.04,0.52l-0.07,0.01
		l-0.03,0.07c-0.32,0.76-0.24,1.91,0.16,2.61c0.46,0.8,1.21,0.82,1.97-0.1c0.21,0.41,0.61,0.7,1.08,0.77h0.04l0.04-0.01
		c0.06-0.03,0.11-0.04,0.22-0.09c0.01,0,0.01,0,0.03-0.01c0.42-0.14,0.59-0.26,0.73-0.53l0.01-0.01v-0.03
		c0.04-0.26,0.06-0.53,0.06-0.83C27.17,16.25,27.15,16.05,27.12,15.64L27.12,15.64z M24.83,15.11c-0.01,0.26-0.03,0.36-0.04,0.5
		c-0.03,0.53-0.03,0.93,0.01,1.33c-0.67,0.86-1.21,0.86-1.56,0.22c-0.34-0.6-0.42-1.62-0.16-2.3l1.81-0.46
		C24.87,14.6,24.86,14.78,24.83,15.11z M26.84,17.24c-0.1,0.17-0.23,0.26-0.57,0.37c-0.01,0-0.01,0-0.03,0.01
		c-0.09,0.03-0.14,0.06-0.19,0.07c-0.39-0.07-0.72-0.33-0.88-0.69c-0.04-0.39-0.04-0.79-0.01-1.32c0.01-0.14,0.01-0.24,0.04-0.5
		c0.03-0.33,0.04-0.53,0.04-0.72l1.56,0.47c0,0.19,0.01,0.36,0.04,0.73c0.03,0.39,0.04,0.59,0.04,0.82
		C26.9,16.76,26.88,17.01,26.84,17.24z"/>
	<g transform="translate(48.476 21.976)">
		<path class="st2" d="M-34.22-13.26c1.32,5.14,9.54,3.82,9.23-1.33C-25.37-20.76-35.48-19.57-34.22-13.26"/>
		<path d="M-24.85-14.61c-0.09-1.49-0.75-2.65-1.84-3.39c-0.98-0.66-2.27-0.92-3.54-0.76c-1.28,0.17-2.45,0.75-3.23,1.65
			c-0.86,1-1.19,2.32-0.89,3.85l0.13-0.03l-0.13,0.03C-33-7.98-24.54-9.25-24.85-14.61z M-34.09-13.29
			c-0.29-1.45,0.03-2.68,0.83-3.62c0.73-0.85,1.84-1.41,3.06-1.56c1.22-0.16,2.44,0.09,3.36,0.72c1.02,0.69,1.64,1.77,1.72,3.19
			C-24.82-9.56-32.82-8.35-34.09-13.29L-34.09-13.29z"/>
		<ellipse cx="-31.95" cy="-14.1" rx="1.39" ry="1.51"/>
		<ellipse class="st2" cx="-31.32" cy="-13.76" rx="0.33" ry="0.39"/>
	</g>
	<g transform="translate(129.618 18.098)">
		<path class="st2" d="M-103.83-10.34c1.02,5.9,10.66,4.33,9.27-1.61C-95.81-17.28-104.18-15.81-103.83-10.34"/>
		<path d="M-94.43-11.98c-1.28-5.5-9.89-3.99-9.54,1.65v0.01c0.47,2.78,2.96,4.2,5.7,3.75c1.25-0.22,2.37-0.82,3.1-1.71
			C-94.38-9.26-94.09-10.54-94.43-11.98L-94.43-11.98z M-95.4-8.45c-0.69,0.83-1.74,1.41-2.93,1.61c-2.6,0.43-4.92-0.9-5.38-3.52
			c-0.32-5.31,7.81-6.73,9.01-1.56C-94.38-10.56-94.64-9.36-95.4-8.45z"/>
		<ellipse cx="-101.47" cy="-10.6" rx="1.36" ry="1.51"/>
		<ellipse class="st2" cx="-100.83" cy="-10.25" rx="0.32" ry="0.39"/>
	</g>
	<g>
		<path class="st0" d="M23.19,11.93c-1.13,0.1-2.05,1.43-1.46,2.5c0.77,1.41,2.51-0.13,3.59,0.01c1.25,0.03,2.27,1.32,3.26,0.23
			c1.1-1.21-0.47-2.38-1.72-2.9L23.19,11.93L23.19,11.93z"/>
		<path class="st3" d="M28.71,12.89c-0.39-0.49-1.06-0.93-1.79-1.23l-0.03-0.01h-0.03l-3.67,0.14c-1.28,0.11-2.2,1.59-1.58,2.71
			c0.24,0.43,0.57,0.65,1.02,0.67c0.33,0.01,0.67-0.06,1.21-0.24c0.04-0.01,0.1-0.03,0.17-0.06c0.72-0.24,1-0.32,1.29-0.27h0.01
			c0.34,0,0.63,0.1,1.18,0.32c0.6,0.24,0.79,0.32,1.09,0.34c0.42,0.03,0.77-0.11,1.1-0.47C29.24,14.17,29.21,13.51,28.71,12.89
			L28.71,12.89z M28.47,14.58c-0.27,0.3-0.55,0.4-0.88,0.39c-0.26-0.01-0.43-0.09-1-0.32c-0.57-0.24-0.89-0.33-1.26-0.34
			c-0.36-0.04-0.66,0.03-1.42,0.29c-0.07,0.03-0.13,0.04-0.17,0.06c-1.05,0.36-1.55,0.33-1.89-0.3c-0.52-0.93,0.27-2.2,1.35-2.3
			l3.63-0.14c0.69,0.29,1.31,0.7,1.66,1.15C28.91,13.58,28.93,14.09,28.47,14.58L28.47,14.58z"/>
		<path d="M27.13,11.31c-0.44-1.64-4.18-1.39-4.09,0.56C23.23,13.32,27.56,12.93,27.13,11.31z"/>
	</g>
</g>
</svg>
