<?xml version="1.0" encoding="utf-8"?>
<!-- Generator: Adobe Illustrator 23.0.1, SVG Export Plug-In . SVG Version: 6.00 Build 0)  -->
<svg version="1.1" id="Layer_1" xmlns="http://www.w3.org/2000/svg" xmlns:xlink="http://www.w3.org/1999/xlink" x="0px" y="0px"
	 viewBox="0 0 50 50" style="enable-background:new 0 0 50 50;" xml:space="preserve">
<style type="text/css">
	.st0{fill:#E44D26;}
	.st1{fill:#F16529;}
	.st2{fill:#EBEBEB;}
	.st3{fill:#FFFFFF;}
</style>
<g>
	<path class="st0" d="M42,9.79l-3.19,35.72l-14.33,3.97l-14.29-3.97L7,9.79H42L42,9.79z"/>
	<path class="st1" d="M24.5,46.45l11.58-3.21l2.72-30.52H24.5V46.45z"/>
	<path class="st2" d="M18.3,21.48h6.2v-4.38H13.51l0.1,1.18l1.08,12.07h9.81v-4.38h-5.8L18.3,21.48z M19.29,32.53h-4.4l0.61,6.88
		l8.98,2.49l0.02-0.01v-4.56l-0.02,0.01l-4.88-1.32L19.29,32.53L19.29,32.53z"/>
	<path d="M10.26,0.08h2.23v2.2h2.04v-2.2h2.23v6.66h-2.23V4.51h-2.04v2.23h-2.23L10.26,0.08L10.26,0.08z M19.67,2.29h-1.96V0.08
		h6.15v2.21H21.9v4.45h-2.23L19.67,2.29L19.67,2.29L19.67,2.29z M24.84,0.08h2.32l1.43,2.34l1.43-2.34h2.32v6.66h-2.22v-3.3
		l-1.53,2.37h-0.04l-1.53-2.37v3.3h-2.18V0.08z M33.45,0.08h2.23v4.46h3.13v2.2h-5.36L33.45,0.08L33.45,0.08z"/>
	<path class="st3" d="M24.48,30.34h5.4l-0.51,5.68l-4.89,1.32v4.56l8.98-2.49l0.07-0.74l1.03-11.54l0.11-1.18H24.48V30.34
		L24.48,30.34z M24.48,21.46v0.01h10.58l0.09-0.98l0.2-2.22l0.1-1.18H24.48V21.46L24.48,21.46z"/>
</g>
</svg>
