<?xml version="1.0" encoding="utf-8"?>
<!-- Generator: Adobe Illustrator 23.0.1, SVG Export Plug-In . SVG Version: 6.00 Build 0)  -->
<svg version="1.1" id="Layer_1" xmlns="http://www.w3.org/2000/svg" xmlns:xlink="http://www.w3.org/1999/xlink" x="0px" y="0px"
	 viewBox="0 0 50 50" style="enable-background:new 0 0 50 50;" xml:space="preserve">
<style type="text/css">
	.st0{fill:#E6A329;}
	.st1{fill:#F1BF22;}
	.st2{fill:#FFFFFF;}
	.st3{fill:#EBEBEB;}
	.st4{fill:#231F20;}
</style>
<path class="st0" d="M43.44,9.78H8l3.32,36.03l14.4,4.08l14.4-4.08L43.44,9.78z"/>
<path class="st1" d="M25.72,12.71v34.12l11.66-3.3l2.84-30.82L25.72,12.71z"/>
<path class="st2" d="M35,17.13H17.06l-1.25,13.49l0.03-0.08h15.24l-0.5,5.71l-4.86,1.4l-4.93-1.42l-0.3-3.45h-4.48l0.64,6.9
	l9.07,2.57l9.07-2.57l1.25-13.55H19.87l0.21-4.51H31.3l0.17,2.59h4.52L35,17.13z"/>
<path class="st3" d="M25.72,17.13h-8.66l-1.25,13.49l0.03-0.08h9.88v-4.4H20.5l0.21-4.51h5.01V17.13z M20.5,32.77h-4.49l0.64,6.9
	l9.07,2.57v-4.59l-4.93-1.42L20.5,32.77z"/>
<path class="st4" d="M22.27,4.46h-3.15v2.26h5.41V0h-2.26V4.46z M32.32,0.04h-5.5v2.35c0.73,0.73,1.12,1.09,2.2,2.15h-2.2v2.15h5.5
	V4.55l-2.2-2.15h2.2V0.04z"/>
</svg>
