<?xml version="1.0" encoding="utf-8"?>
<!-- Generator: Adobe Illustrator 23.0.1, SVG Export Plug-In . SVG Version: 6.00 Build 0)  -->
<svg version="1.1" id="Layer_1" xmlns="http://www.w3.org/2000/svg" xmlns:xlink="http://www.w3.org/1999/xlink" x="0px" y="0px"
	 viewBox="0 0 254 306.33" style="enable-background:new 0 0 254 306.33;" xml:space="preserve">
<style type="text/css">
	.st0{fill:url(#SVGID_1_);}
	.st1{fill:url(#SVGID_2_);}
</style>
<linearGradient id="SVGID_1_" gradientUnits="userSpaceOnUse" x1="4.3997" y1="153.4699" x2="254" y2="153.4699">
	<stop  offset="0" style="stop-color:#00C6FF"/>
	<stop  offset="1" style="stop-color:#0072FF"/>
	<stop  offset="1" style="stop-color:#5F5F5F"/>
</linearGradient>
<path class="st0" d="M154.59,294.59c48.9-10.55,72.73-40.39,70.49-91.22c-14.78,0-29.76,0-44.69,0c-1.52,9.31-2.34,19-4.76,28.27
	c-9.88,37.81-41.83,62.65-82.86,65.05c-35.45,2.07-70.1-20.44-82.79-55.62c-4.03-11.17-5.31-23.83-5.41-35.83
	c-0.33-38.29-0.33-76.63,1.1-114.88c1.4-37.53,21.98-63.12,56.63-74.96c35.68-12.19,67.92-2.89,94.04,24.53
	c16.76,17.6,22.91,39.61,23.09,64.22c15.26,0,30.22,0,46.08,0c-0.67-21.96-1.78-43.14-16.23-60.62
	c-13.91-16.83-32.53-25.92-53.57-31.05c21.63-3.12,41.07,1.97,59.13,14.14c36.52,24.61,40.03,61.16,36.92,100.66
	c-32.65,0-65.3,0-98.99,0c0-6.65-0.14-12.62,0.03-18.58c0.67-23.37-4.99-44.2-24.75-58.78c-20.2-14.9-42.28-16.76-64.5-5.69
	C42.23,54.82,30.95,72.74,30.9,97c-0.07,37.72-0.11,75.43-0.02,113.15c0.08,32.96,25.41,58.65,58.74,59.81
	c31.78,1.11,59.99-23.85,62.24-55.64c0.77-10.84,0.12-21.78,0.12-33.92c33.8,0,66.43,0,99.21,0
	C267.1,241.75,212.75,307.48,154.59,294.59z"/>
<linearGradient id="SVGID_2_" gradientUnits="userSpaceOnUse" x1="78.3996" y1="153.4873" x2="115.7348" y2="153.4873">
	<stop  offset="0" style="stop-color:#00C6FF"/>
	<stop  offset="1" style="stop-color:#0072FF"/>
	<stop  offset="1" style="stop-color:#5F5F5F"/>
</linearGradient>
<path class="st1" d="M115.73,61.71c-16.02,23-12.14,47.8-12.5,71.88c-0.34,23.38-0.96,46.83,0.49,70.12
	c0.88,14.12,5.46,28,8.29,41.56c-18.71-1.41-33.19-15.48-33.37-35.29c-0.34-37.65-0.33-75.31,0.01-112.96
	C78.83,77.72,93.24,63.61,115.73,61.71z"/>
</svg>
