<?xml version="1.0" encoding="utf-8"?>
<!-- Generator: Adobe Illustrator 23.0.1, SVG Export Plug-In . SVG Version: 6.00 Build 0)  -->
<svg version="1.1" id="Layer_1" xmlns="http://www.w3.org/2000/svg" xmlns:xlink="http://www.w3.org/1999/xlink" x="0px" y="0px"
	 viewBox="0 0 50 50" style="enable-background:new 0 0 50 50;" xml:space="preserve">
<style type="text/css">
	.st0{fill-rule:evenodd;clip-rule:evenodd;fill:#8993BE;}
	.st1{fill-rule:evenodd;clip-rule:evenodd;fill:#232531;}
</style>
<g>
	<ellipse class="st0" cx="25" cy="24.5" rx="25" ry="12.5"/>
	<path class="st1" d="M7.02,31.9l2.74-13.32h6.34c2.74,0.16,4.11,1.48,4.11,3.78c0,3.95-3.25,6.25-6.16,6.09h-3.08l-0.68,3.45H7.02z
		 M11.64,25.98l0.86-4.93h2.23c1.2,0,2.05,0.49,2.05,1.48c-0.17,2.8-1.54,3.29-3.08,3.45H11.64L11.64,25.98z M19.57,28.45
		l2.74-13.32h3.25l-0.68,3.45h3.08c2.74,0.16,3.77,1.48,3.42,3.13l-1.2,6.74h-3.42l1.2-6.09c0.17-0.82,0.17-1.32-1.03-1.32h-2.57
		l-1.54,7.4H19.57z M29.97,31.9l2.74-13.32h6.34c2.74,0.16,4.11,1.48,4.11,3.78c0,3.95-3.25,6.25-6.16,6.09H33.9l-0.68,3.45H29.97z
		 M34.59,25.98l0.86-4.93h2.23c1.2,0,2.05,0.49,2.05,1.48c-0.17,2.8-1.54,3.29-3.08,3.45H34.59L34.59,25.98z"/>
</g>
</svg>
