<?xml version="1.0" encoding="utf-8"?>
<!-- Generator: Adobe Illustrator 23.0.1, SVG Export Plug-In . SVG Version: 6.00 Build 0)  -->
<svg version="1.1" id="Layer_1" xmlns="http://www.w3.org/2000/svg" xmlns:xlink="http://www.w3.org/1999/xlink" x="0px" y="0px"
	 viewBox="0 0 50 50" style="enable-background:new 0 0 50 50;" xml:space="preserve">
<style type="text/css">
	.st0{fill:#656565;}
	.st1{fill:url(#SVGID_1_);}
	.st2{fill:url(#SVGID_2_);}
	.st3{opacity:0.444;fill:url(#SVGID_3_);enable-background:new    ;}
</style>
<path class="st0" d="M8.19,42.63c0-1.97-0.56-2.95-1.68-2.98c-0.46-0.03-0.88,0.07-1.3,0.21c-0.35,0.1-0.56,0.25-0.67,0.35v4.63
	c0.7,0.46,1.33,0.67,1.9,0.63C7.6,45.37,8.19,44.42,8.19,42.63z M9.56,42.7c0,0.98-0.21,1.79-0.7,2.46
	c-0.53,0.74-1.23,1.12-2.18,1.12c-0.7,0.03-1.4-0.21-2.14-0.67v4.21L3.35,49.4v-9.37c0.21-0.25,0.46-0.46,0.74-0.63
	c0.7-0.42,1.58-0.63,2.56-0.63c0.91,0,1.65,0.39,2.14,1.12C9.32,40.7,9.56,41.58,9.56,42.7L9.56,42.7z M16.83,45.47
	c0,1.33-0.14,2.25-0.39,2.74c-0.28,0.49-0.77,0.91-1.51,1.23c-0.63,0.25-1.26,0.39-1.97,0.39l-0.21-0.74
	c0.74-0.1,1.23-0.21,1.51-0.28c0.56-0.21,0.98-0.49,1.19-0.91c0.17-0.32,0.25-0.95,0.25-1.86v-0.32c-0.81,0.39-1.68,0.56-2.56,0.56
	c-0.6,0-1.12-0.17-1.54-0.56c-0.49-0.39-0.74-0.91-0.74-1.54v-4.95l1.19-0.42v4.98c0,0.53,0.17,0.95,0.53,1.23s0.77,0.42,1.33,0.42
	c0.56,0,1.12-0.21,1.76-0.63v-5.83h1.19L16.83,45.47z M21.46,46.24h-0.39c-0.67,0-1.19-0.17-1.58-0.49
	c-0.39-0.32-0.56-0.77-0.56-1.33v-4.7h-0.81v-0.74h0.81v-2l1.19-0.42v2.42h1.33v0.74h-1.33v4.63c0,0.46,0.1,0.77,0.35,0.95
	c0.21,0.14,0.53,0.25,0.98,0.28V46.24z M28.69,46.14H27.5v-4.6c0-0.46-0.1-0.88-0.32-1.19c-0.25-0.39-0.6-0.56-1.05-0.56
	c-0.56,0-1.23,0.28-2.03,0.88v5.51H22.9V35.19l1.19-0.39v4.98c0.77-0.56,1.58-0.84,2.49-0.84c0.63,0,1.12,0.21,1.54,0.63
	c0.39,0.42,0.6,0.95,0.6,1.58L28.69,46.14z M35.01,42.42c0-0.74-0.14-1.37-0.42-1.86c-0.35-0.6-0.84-0.91-1.58-0.95
	c-1.3,0.07-1.97,1.02-1.97,2.81c0,0.84,0.14,1.51,0.42,2.07c0.35,0.7,0.88,1.05,1.58,1.05C34.34,45.51,35.01,44.49,35.01,42.42z
	 M36.31,42.42c0,1.05-0.28,1.97-0.81,2.67c-0.6,0.77-1.44,1.19-2.46,1.19c-1.05,0-1.86-0.39-2.46-1.19
	c-0.53-0.7-0.81-1.58-0.81-2.67c0-1.02,0.28-1.86,0.88-2.53c0.63-0.74,1.4-1.09,2.39-1.09c0.98,0,1.79,0.35,2.42,1.09
	C36.03,40.59,36.31,41.44,36.31,42.42z M43.15,46.14h-1.19v-4.84c0-0.53-0.17-0.95-0.49-1.23c-0.32-0.28-0.74-0.46-1.3-0.42
	c-0.56,0-1.12,0.21-1.61,0.56v6h-1.19v-6.14c0.67-0.49,1.3-0.84,1.9-0.98c0.56-0.14,1.02-0.21,1.44-0.21c0.28,0,0.56,0.03,0.81,0.07
	c0.46,0.1,0.84,0.32,1.12,0.6c0.32,0.32,0.49,0.74,0.49,1.19L43.15,46.14z"/>
<linearGradient id="SVGID_1_" gradientUnits="userSpaceOnUse" x1="12867.9854" y1="27082.5723" x2="12869.6152" y2="27083.9727" gradientTransform="matrix(9.2563 0 0 9.3468 -119101.4297 -253134.3906)">
	<stop  offset="0" style="stop-color:#5CA0D5"/>
	<stop  offset="1" style="stop-color:#316A99"/>
</linearGradient>
<path class="st1" d="M22.73,0.23c-1.12,0-2.21,0.1-3.16,0.28c-2.81,0.49-3.3,1.51-3.3,3.44v2.53h6.6v0.84h-9.06
	c-1.9,0-3.58,1.16-4.11,3.33c-0.6,2.53-0.63,4.07,0,6.7c0.46,1.97,1.58,3.33,3.51,3.33h2.28v-3.02c0-2.18,1.9-4.11,4.11-4.11h6.56
	c1.83,0,3.3-1.51,3.3-3.37V3.92c0-1.79-1.51-3.12-3.3-3.44C25.01,0.3,23.85,0.2,22.73,0.23z M19.14,2.23c0.67,0,1.23,0.56,1.23,1.26
	s-0.56,1.26-1.23,1.26c-0.67,0-1.23-0.56-1.23-1.26S18.44,2.23,19.14,2.23z"/>
<linearGradient id="SVGID_2_" gradientUnits="userSpaceOnUse" x1="12870.248" y1="27084.8203" x2="12869.666" y2="27083.9961" gradientTransform="matrix(9.2563 0 0 9.3468 -119101.4297 -253134.3906)">
	<stop  offset="0" style="stop-color:#FFD43E"/>
	<stop  offset="1" style="stop-color:#FFE975"/>
</linearGradient>
<path class="st2" d="M30.27,7.25v2.91c0,2.28-1.93,4.18-4.14,4.18h-6.56c-1.79,0-3.3,1.54-3.3,3.37v6.28c0,1.79,1.54,2.84,3.3,3.37
	c2.07,0.63,4.07,0.74,6.6,0c1.65-0.49,3.3-1.44,3.3-3.37v-2.53h-6.6v-0.84h9.9c1.9,0,2.63-1.33,3.3-3.33c0.7-2.07,0.67-4.04,0-6.7
	c-0.46-1.9-1.37-3.33-3.3-3.33L30.27,7.25z M26.55,23.15c0.67,0,1.23,0.56,1.23,1.26c0,0.7-0.56,1.26-1.23,1.26
	c-0.67,0-1.23-0.56-1.23-1.26C25.32,23.71,25.88,23.15,26.55,23.15z"/>
<path class="st0" d="M45.43,37.93h0.21v-1.3h0.49v-0.17h-1.19v0.17h0.49V37.93z M46.34,37.93h0.17v-1.19l0.39,1.19h0.21l0.39-1.19
	v1.19h0.21v-1.47h-0.25l-0.46,1.26l-0.39-1.26h-0.28V37.93z"/>
<radialGradient id="SVGID_3_" cx="-82708.3594" cy="13892.2148" r="0.4336" gradientTransform="matrix(0 -3.9477 17.3558 0 -241087.5781 -326476.4688)" gradientUnits="userSpaceOnUse">
	<stop  offset="0" style="stop-color:#B8B8B8;stop-opacity:0.498"/>
	<stop  offset="1" style="stop-color:#7F8080;stop-opacity:0"/>
</radialGradient>
<path class="st3" d="M31.78,31.61c0,0.95-3.96,1.72-8.84,1.72s-8.84-0.77-8.84-1.72s3.96-1.72,8.84-1.72S31.78,30.66,31.78,31.61
	L31.78,31.61z"/>
</svg>
